<?xml version="1.0" encoding="utf-8"?>
<!-- Generator: Adobe Illustrator 19.2.0, SVG Export Plug-In . SVG Version: 6.00 Build 0)  -->
<svg version="1.1" id="Layer_1" xmlns="http://www.w3.org/2000/svg" xmlns:xlink="http://www.w3.org/1999/xlink" x="0px" y="0px"
	 viewBox="0 0 545 175" style="enable-background:new 0 0 545 175;" xml:space="preserve">
<style type="text/css">
	.st0{fill:#FF5543;}
</style>
<path class="st0" d="M220.7,133.9c-18.3,17.8-21.1,1.6-21.1-14.8V51c0-28-8.5-49.7-30.9-49.7c-12,0-21.8,3.8-21.8,17V45
	c0,27.1-24.3,26.1-38.1,19.8c-5.4-2.5-18.8-13.7-42.3-13.7c-35.4,0-64.1,23.6-64.1,61.3c0,37.7,28.7,61.3,64.1,61.3
	s64.1-23.7,64.1-61.4c0-3.8-0.6-11.2-1.1-14.7c5.8-0.7,14.3-4.4,17.4-10.2v43c0,25.3,17.6,41.5,38.2,43.1c20.6,1.6,34.3-9.7,44-21.7
	C240.4,137.9,226.7,128.1,220.7,133.9z M74.4,138.6c0,3.8-3.5,6.8-7.8,6.8s-7.8-3.1-7.8-6.8V86c0-3.8,3.5-6.8,7.8-6.8
	s7.8,3.1,7.8,6.8V138.6z M384.5,119.1c0,16.4,2.9,32.6,21.2,14.8c6-5.8,19.6,4,8.4,17.9c-9.7,12-23.5,23.3-44.2,21.7
	c-17.4-1.4-32.9-13.1-37.3-31.9c-1.6,3.2-3.8,6.6-6.7,10.2c-9.6,12.1-27.4,23.3-48,21.7c-20.6-1.6-38.6-17.8-38.6-43.1V18.3
	c0-13.2,9.7-17,21.8-17C283.5,1.3,292,23,292,51v66.6c0,16.4,3.1,33.7,21.7,16.2c5.7-5.4,18.1-18.6,18.1-40.6V75.2
	c0-13.2,9.7-17,21.8-17c22.3,0,30.9,21.7,30.9,49.7V119.1z M484.8,51c-35.2,0-63.7,23.6-63.7,61.3c0,37.7,28.5,61.3,63.7,61.3
	c13.5,0,26.4-2.8,34.2-6.8c27.2-14,14.9-27.6,7.8-23.3c-3.6,2.2-11.3,7.2-20.1,7.2c-8.6,0-14.8-4.8-14.8-11.2c0,0,47.3-2,50.2-31.5
	C545.9,70.6,510.1,51,484.8,51z M492.7,109.1c0,3.8-3.5,6.8-7.8,6.8c-4.3,0-7.8-3.1-7.8-6.8v-23c0-3.8,3.5-6.8,7.8-6.8
	c4.3,0,7.8,3.1,7.8,6.8V109.1z M357.7,1.3c13.9,0,25.1,9.8,25.1,21.8S371.5,45,357.7,45c-13.9,0-25.1-9.8-25.1-21.8
	S343.8,1.3,357.7,1.3z"/>
</svg>
